<svg preserveAspectRatio="xMidYMid meet" data-bbox="0 -0.01 249.778 249.78" viewBox="0 -0.01 249.778 249.78" xmlns="http://www.w3.org/2000/svg" data-type="color" role="presentation" aria-hidden="true" aria-labelledby="svgcid--81xpqput8vs2"><title id="svgcid--81xpqput8vs2"></title>
    <g>
        <g>
            <path d="M241.19 105.18a8.58 8.58 0 1 0 0-17.16H221V76.89h20.17a8.58 8.58 0 1 0 0-17.16h-20.73A37.38 37.38 0 0 0 190 29.33V8.58a8.58 8.58 0 1 0-17.16 0v20.17h-11.09V8.58a8.58 8.58 0 0 0-17.16 0v20.17h-11.13V8.58a8.58 8.58 0 0 0-17.16 0v20.17h-11.12V8.58a8.58 8.58 0 0 0-17.18 0v20.17H76.89V8.58a8.58 8.58 0 1 0-17.16 0v20.75a37.36 37.36 0 0 0-30.4 30.4H8.58a8.58 8.58 0 0 0 0 17.16h20.17V88H8.58a8.58 8.58 0 0 0 0 17.16h20.17v11.14H8.58a8.58 8.58 0 0 0 0 17.16h20.17v11.13H8.58a8.58 8.58 0 0 0 0 17.16h20.17v11.13H8.58a8.58 8.58 0 0 0 0 17.16h20.75a37.38 37.38 0 0 0 30.4 30.4v20.75a8.58 8.58 0 1 0 17.16 0V221H88v20.17a8.58 8.58 0 0 0 17.16 0V221h11.14v20.17a8.58 8.58 0 0 0 17.16 0V221h11.13v20.17a8.58 8.58 0 0 0 17.16 0V221h11.13v20.17a8.58 8.58 0 1 0 17.16 0v-20.73a37.41 37.41 0 0 0 30.4-30.4h20.75a8.58 8.58 0 1 0 0-17.16H221v-11.13h20.17a8.58 8.58 0 1 0 0-17.16H221v-11.13h20.17a8.58 8.58 0 1 0 0-17.16H221v-11.12zm-57.5 101.22h-.55a8.39 8.39 0 0 0-3.36 0h-24.93a8.4 8.4 0 0 0-1.68-.17 8.55 8.55 0 0 0-1.68.17h-24.93a8.4 8.4 0 0 0-1.68-.17 8.55 8.55 0 0 0-1.68.17H98.28a8.55 8.55 0 0 0-1.68-.17 8.4 8.4 0 0 0-1.68.17H70a8.39 8.39 0 0 0-3.36 0h-.55a22.73 22.73 0 0 1-22.71-22.71v-.55a8.39 8.39 0 0 0 0-3.36v-24.93a9.2 9.2 0 0 0 .17-1.68 9.38 9.38 0 0 0-.17-1.68v-24.93a8.34 8.34 0 0 0 0-3.35V98.28a9.38 9.38 0 0 0 .17-1.68 9.2 9.2 0 0 0-.17-1.68V70a9.38 9.38 0 0 0 .17-1.68 9.2 9.2 0 0 0-.17-1.68v-.55a22.73 22.73 0 0 1 22.7-22.72h.55a9.2 9.2 0 0 0 1.68.17 9.38 9.38 0 0 0 1.69-.17h24.92a9.2 9.2 0 0 0 1.68.17 9.38 9.38 0 0 0 1.68-.17h24.93a8.34 8.34 0 0 0 3.35 0h24.93a9.38 9.38 0 0 0 1.68.17 9.2 9.2 0 0 0 1.68-.17h24.93a8.39 8.39 0 0 0 3.36 0h.55a22.73 22.73 0 0 1 22.71 22.71v.55a8.4 8.4 0 0 0-.17 1.68 8.55 8.55 0 0 0 .17 1.69v24.92a8.4 8.4 0 0 0-.17 1.68 8.55 8.55 0 0 0 .17 1.68v24.93a8.34 8.34 0 0 0 0 3.35v24.93a8.55 8.55 0 0 0-.17 1.68 8.4 8.4 0 0 0 .17 1.68v24.93a8.39 8.39 0 0 0 0 3.36v.55a22.74 22.74 0 0 1-22.71 22.71z" fill="#292929" data-color="1"></path>
            <path d="M183.69 53.11H66.08a13 13 0 0 0-13 13v117.58a13 13 0 0 0 13 13h117.61a13 13 0 0 0 13-13V66.08a13 13 0 0 0-13-12.97zm-39.31 108.64a33.21 33.21 0 0 1-10.76 3.8v5.07a6.44 6.44 0 0 1-6.42 6.38h-3.33a6.43 6.43 0 0 1-6.41-6.41v-4.88c-7-1-13.63-3.23-18.29-6.85-4.81-3.74-5.79-7.74-3-12.26 2.42-3.92 6.28-5 10.41-2.89 3.33 1.68 6.62 3.46 10.06 4.91a21.16 21.16 0 0 0 13 1c3.53-.78 6.28-3.22 6.62-5.92.37-3-.93-5.38-4.7-7-5-2.21-10.29-3.87-15.33-6.07-4.3-1.87-8.81-3.63-12.55-6.37C91.06 115 93 95.24 107 88.09a34.16 34.16 0 0 1 10.5-3.26v-5.68a6.44 6.44 0 0 1 6.42-6.41h3.33a6.42 6.42 0 0 1 6.41 6.41v5.78a42.49 42.49 0 0 1 10.86 3.2A31.61 31.61 0 0 1 151.8 93c2.51 2.15 2.76 5.11 1.55 8.13s-3.26 5.79-6.81 5.63a20.09 20.09 0 0 1-7.45-2.4c-5.21-2.55-10.58-4.33-16.44-3.83a14.44 14.44 0 0 0-5.36 1.37c-4.64 2.4-4.8 7.86-.18 10.27 3.81 2 8 3.25 12 5 5.74 2.49 11.77 4.56 17.08 7.79 12.47 7.59 11.97 28.66-1.81 36.79z" fill="#2f89f1" data-color="2"></path>
        </g>
    </g>
</svg>