<svg preserveAspectRatio="xMidYMid meet" data-bbox="-0.001 0 248.849 213.81" viewBox="-0.001 0 248.849 213.81" xmlns="http://www.w3.org/2000/svg" data-type="color" role="presentation" aria-hidden="true" aria-labelledby="svgcid-bda90v5aawi0"><title id="svgcid-bda90v5aawi0"></title>
    <g>
        <g>
            <path d="M231.2 0H17.92A18.07 18.07 0 0 0 0 18.21v136.11a18.07 18.07 0 0 0 17.92 18.21h213a18.08 18.08 0 0 0 17.92-18.21V18.21A17.66 17.66 0 0 0 231.2 0zM124.56 163.86a7.52 7.52 0 1 1 7.51-7.51 7.46 7.46 0 0 1-7.51 7.51zm108.08-23.12H16.47V18.21a1.94 1.94 0 0 1 1.74-2h213a1.94 1.94 0 0 1 1.73 2l-.29 122.53z" fill="#292929" data-color="1"></path>
            <path d="M184.84 32.14a4.6 4.6 0 0 0-4.55-4.22H68.21A4.3 4.3 0 0 0 64 32.14v90.64a4.29 4.29 0 0 0 4.21 4.22h112.41a4.29 4.29 0 0 0 4.22-4.22zm-57.5 6.18a3.72 3.72 0 0 1 2.27-2.6 4.07 4.07 0 0 1 1.95-.33 5.19 5.19 0 0 1 4.55 2.6c1.3 2.28 0 5.2-2.27 6.5a4.47 4.47 0 0 1-3.58.32 4.59 4.59 0 0 1-2.92-2.6 8 8 0 0 1 0-3.89zm18.52 0a4.5 4.5 0 0 1 2.27-2.6 4.07 4.07 0 0 1 2-.33 5.2 5.2 0 0 1 4.55 2.6c1.3 2.28 0 5.2-2.27 6.5s-5.2 0-6.5-2.28a7.77 7.77 0 0 1-.05-3.89zm21.14-2.6a4.55 4.55 0 0 1 1.95-.65 5.17 5.17 0 0 1 4.55 2.6c1.3 2.27 0 5.19-2.27 6.49s-5.2 0-6.5-2.27a4.28 4.28 0 0 1 2.27-6.17zm9.43 17.86v65h-104v-65z" fill="#2f89f1" data-color="2"></path>
            <path fill="#2f89f1" d="M124.74 64.96v6.5H82.18v-6.5h42.56z" data-color="2"></path>
            <path fill="#2f89f1" d="M166 82.82v6.5H82.18v-6.5H166z" data-color="2"></path>
            <path fill="#2f89f1" d="M166.65 100.69v6.5H82.83v-6.5h83.82z" data-color="2"></path>
            <path fill="#292929" d="M180.33 196.48v10.97a6.36 6.36 0 0 1-6.36 6.36H75.14a6.36 6.36 0 0 1-6.36-6.36v-10.97a6.36 6.36 0 0 1 6.36-6.36h98.83a6.36 6.36 0 0 1 6.36 6.36z" data-color="1"></path>
            <path fill="#292929" d="M137.49 170.33v19.79h-25.87v-19.79h25.87z" data-color="1"></path>
        </g>
    </g>
</svg>