<svg preserveAspectRatio="xMidYMid meet" data-bbox="0 0 240.53 240.512" viewBox="0 0 240.53 240.512" xmlns="http://www.w3.org/2000/svg" data-type="color" role="presentation" aria-hidden="true" aria-labelledby="svgcid-jt0lu7wfi3js"><title id="svgcid-jt0lu7wfi3js"></title>
    <g>
        <g>
            <path d="M211.83 214.53A79.16 79.16 0 0 0 232.94 160a80.06 80.06 0 0 0-23.07-56.21c-6.14 51.55-50.57 91.31-104.08 91.06H80a79.75 79.75 0 0 0 72.66 45.66l87.87-.25z" fill="#292929" data-color="1"></path>
            <path d="M172.8 26.76A91.49 91.49 0 0 0 108.74 0C58.42 0 17.67 40.5 17.67 90.57a91.53 91.53 0 0 0 19.15 56.21l.74 1L0 181.39l108.74.25A90.6 90.6 0 0 0 172.8 26.76zm-64.06 143.59-77.57-.25L54.74 149l-4.18-4.41A79 79 0 0 1 108.74 12a77.87 77.87 0 0 1 56 23.32 80.4 80.4 0 0 1 23.08 56 79.31 79.31 0 0 1-79.08 79.03z" fill="#292929" data-color="1"></path>
            <path d="m124.45 68.83-3 1.23a16.9 16.9 0 0 0-4.17-4.18l1.47-3.68c.25-.24.25-.74 0-.74-.24-.49-.49-.49-.73-.49l-4.67-2c-.49-.25-1.23.25-1.47.74l-1.47 3.68a13.69 13.69 0 0 0-5.4-.25l-1.48-3.43a1.74 1.74 0 0 0-1.47-.74l-4.66 2a1.78 1.78 0 0 0-.74 1.48l1.23 3.19A12 12 0 0 0 94 69.56l-3.19-1.71c-.49-.25-1.23.24-1.47.73l-2 4.42c-.24.25-.24.74 0 .74s.49.49.74.49L91.8 76a25.19 25.19 0 0 0-.24 6.13l-3 1.23a1.76 1.76 0 0 0-.74 1.47l2 4.67a1.74 1.74 0 0 0 1.47.73l3-1.22a12 12 0 0 0 3.92 3.92l-1.47 3.44c-.24.24-.24.74 0 .74s.49.49.74.49l4.66 2c.25.25.74.25.74 0 .49-.25.49-.49.49-.74l1.47-3.43a16.93 16.93 0 0 0 6.14.24l1.22 2.7a1.78 1.78 0 0 0 1.48.74l4.66-2a1.78 1.78 0 0 0 .74-1.48l-1.48-2.94a16.94 16.94 0 0 0 4.18-4.18l2.94 1.23c.25.25.74.25.74 0s.49-.49.49-.73l2-4.67c.25-.24.25-.73 0-.73-.24-.5-.49-.5-.73-.5l-3-1.22a10.09 10.09 0 0 0 0-5.4l3-1.23a1.75 1.75 0 0 0 .73-1.47l-2.21-4.67c-.07-.29-.56-.54-1.29-.29zM111.68 89a10.35 10.35 0 1 1 5.65-13.5c2.21 5.6-.25 11.5-5.65 13.5z" fill="#2f89f1" data-color="2"></path>
            <path d="M107.76 40.35a39.54 39.54 0 0 0-19.15 74.13v11.29a1.59 1.59 0 0 0 1.47 1.48h.74v5.4a1.59 1.59 0 0 0 1.47 1.47h2.21v4.17a1.59 1.59 0 0 0 1.5 1.48h24.3a1.59 1.59 0 0 0 1.48-1.48v-4.17H124a1.59 1.59 0 0 0 1.47-1.47v-5.4h1a1.58 1.58 0 0 0 1.47-1.48v-11a39.45 39.45 0 0 0 20.38-34.61c-1.04-21.89-18.72-39.81-40.56-39.81zm-12.52 69.47-1.24-.74a32.4 32.4 0 1 1 28 0l-1.22.74a1.35 1.35 0 0 0-.74 1.23v9.08H96v-9.08a1.36 1.36 0 0 0-.76-1.23z" fill="#2f89f1" data-color="2"></path>
        </g>
    </g>
</svg>